<svg xmlns="http://www.w3.org/2000/svg" xmlns:xlink="http://www.w3.org/1999/xlink" version="1.1" x="0px" y="0px" viewBox="0 0 100 100" enable-background="new 0 0 100 100" xml:space="preserve"><g><g><path d="M58.973,16.517c0.168,2.886,2.642,5.085,5.527,4.916c2.884-0.172,5.087-2.643,4.915-5.529    c-0.169-2.882-2.64-5.085-5.529-4.916C61.003,11.157,58.802,13.634,58.973,16.517z"/><path d="M27.9,20.859c0.018,0.002,1.742,0.111,3.012,1.825c1.465,1.978,4.52,6.099,9.484,5.307    c2.177-0.348,4.041-2.132,5.848-3.854c1.866-1.785,3.799-3.636,5.618-3.456c1.408,0.135,2.539,1.359,3.844,2.776    c1.918,2.072,4.292,4.642,8.526,4.642c0.094,0,0.188,0,0.282-0.002c3.95-0.105,6.324-2.402,8.421-4.429    c1.86-1.801,3.318-3.223,5.612-3.155c0.831,0.042,1.546-0.64,1.568-1.482c0.027-0.843-0.635-1.546-1.479-1.571    c-3.567-0.11-5.832,2.083-7.827,4.012c-1.859,1.799-3.615,3.497-6.379,3.57c-1.758,0.047-3.06-0.548-4.189-1.429l-2.687-4.642    c-0.033-0.21-0.03-0.447-0.152-0.633c-0.458-0.707-0.769-1.441-1.4-1.895l-3.593-6.554l10.315-3.648    c1.136-0.399,1.734-1.647,1.329-2.784c-0.401-1.134-1.646-1.732-2.783-1.329L48.533,6.627c-0.604,0.214-1.084,0.681-1.311,1.28    c-0.228,0.598-0.185,1.266,0.125,1.827l3.669,6.693L34.273,22.04c-0.311-0.38-0.611-0.776-0.906-1.173    c-2.156-2.911-5.228-3.055-5.359-3.059c-0.849-0.016-1.548,0.631-1.579,1.473C26.398,20.124,27.057,20.831,27.9,20.859z     M60.235,23.608c-0.402-0.314-0.785-0.664-1.157-1.041C59.45,22.941,59.833,23.291,60.235,23.608z"/><path d="M70.801,31.389c-1.859,1.799-3.614,3.497-6.379,3.568c-3.015,0.08-4.707-1.733-6.482-3.655    c-1.587-1.719-3.229-3.498-5.793-3.746c-3.22-0.307-5.771,2.135-8.024,4.288c-1.469,1.4-2.981,2.851-4.219,3.046    c-2.894,0.458-4.823-1.778-6.547-4.108c-2.157-2.913-5.229-3.054-5.358-3.057c-0.841-0.018-1.53,0.618-1.57,1.453    c-0.039,0.835,0.607,1.547,1.44,1.598c0.074,0.006,1.776,0.13,3.03,1.823c1.468,1.982,4.523,6.103,9.488,5.307    c2.174-0.346,4.04-2.128,5.846-3.853c1.865-1.785,3.805-3.639,5.618-3.455c1.408,0.135,2.537,1.356,3.847,2.774    c1.914,2.074,4.287,4.643,8.524,4.643c0.091,0,0.185,0,0.277-0.003c3.953-0.103,6.329-2.4,8.423-4.425    c1.822-1.761,3.268-3.16,5.459-3.16c0.054,0,0.104,0.003,0.155,0.003c0.825,0.041,1.548-0.639,1.571-1.481    c0.025-0.844-0.639-1.547-1.483-1.574C75.08,27.262,72.797,29.459,70.801,31.389z"/><path d="M78.638,37.295c-3.567-0.106-5.832,2.08-7.827,4.012c-1.859,1.797-3.615,3.494-6.379,3.57    c-3.036,0.068-4.702-1.738-6.478-3.661c-1.59-1.722-3.229-3.495-5.798-3.742c-3.217-0.307-5.768,2.133-8.021,4.288    c-1.469,1.399-2.984,2.848-4.218,3.045c-2.897,0.459-4.823-1.776-6.55-4.107c-2.156-2.912-5.228-3.053-5.359-3.056    c-0.849-0.019-1.548,0.627-1.579,1.472c-0.03,0.844,0.628,1.55,1.472,1.58c0.018,0,1.742,0.108,3.012,1.823    c1.465,1.978,4.52,6.099,9.484,5.304c2.177-0.345,4.041-2.126,5.848-3.853c1.866-1.786,3.799-3.636,5.618-3.455    c1.408,0.135,2.539,1.358,3.844,2.775c1.918,2.074,4.292,4.643,8.526,4.643c0.094,0,0.188,0,0.282-0.003    c3.95-0.104,6.324-2.402,8.421-4.429c1.86-1.799,3.318-3.21,5.612-3.156c0.831,0.046,1.546-0.636,1.568-1.48    C80.144,38.021,79.481,37.319,78.638,37.295z"/></g><g><circle cx="35.664" cy="56.783" r="4.952"/><path d="M44.956,67.521c-0.477-1.039-1.699-1.496-2.739-1.021l-8.045,3.682l-1.104-6.961c-0.073-0.475-0.305-0.883-0.633-1.188    c-0.196-0.43-0.54-0.799-1.002-1.018l-8.888-4.182c-0.527-0.248-1.137-0.26-1.674-0.035c-0.541,0.223-0.959,0.664-1.152,1.215    l-2.943,8.309c-0.383,1.074,0.181,2.258,1.254,2.639c0.229,0.078,0.462,0.117,0.69,0.117c0.85,0,1.648-0.527,1.947-1.375    l2.183-6.16l3.146,1.484l-6.854,8.709c-0.122,0.09-0.233,0.191-0.335,0.305L2.971,90.258c-0.748,0.861-0.656,2.162,0.206,2.914    c0.388,0.34,0.872,0.506,1.352,0.506c0.575,0,1.151-0.24,1.562-0.711l13.47-15.496l6.328,4.631l-9.582,4.484    c-1.035,0.482-1.479,1.711-0.997,2.746c0.351,0.748,1.097,1.191,1.874,1.191c0.293,0,0.589-0.064,0.873-0.197l12.741-5.959    c0.662-0.309,1.111-0.945,1.183-1.668c0.069-0.73-0.248-1.438-0.84-1.869l-6.285-4.602l5.069-6.441l0.591,3.725    c0.102,0.641,0.495,1.193,1.062,1.498c0.306,0.164,0.642,0.248,0.978,0.248c0.293,0,0.586-0.062,0.859-0.188l10.52-4.812    C44.976,69.785,45.431,68.557,44.956,67.521z"/></g><g><path d="M82.377,60.266c2.731,0.443,5.3-1.41,5.744-4.137c0.446-2.729-1.402-5.302-4.134-5.748    c-2.729-0.443-5.301,1.41-5.744,4.137C77.798,57.248,79.65,59.82,82.377,60.266z"/><path d="M90.634,74.143c-1.4-0.309-2.807-0.322-4.141-0.084l-1.531-3.996l2.123,0.004c1.153,0,2.088-0.936,2.089-2.088    c0-1.146-0.923-2.08-2.066-2.09c-0.007,0-0.012,0-0.018,0l-6.896-0.006c0,0-2.364-6.65-2.611-7.094    c-1.01-1.816-3.299-2.467-5.113-1.455l-12.054,6.715c-1.814,1.01-2.464,3.299-1.455,5.113c0.318,0.568,0.762,1.021,1.278,1.346    c0.517,0.471,1.137,0.771,1.785,0.902l7.459,3.543l-0.327,8.932c-0.041,1.15,0.859,2.117,2.011,2.162c0.019,0,0.038,0,0.06,0    c1.124,0.01,2.062-0.879,2.105-2.012l0.374-10.299c0.03-0.834-0.435-1.605-1.188-1.963L66.9,69.102l-0.155,0.025l8.474-4.721    l0.235,0.666l1.316,3.615c0.3,0.816,1.074,1.365,1.944,1.371c0.003,0,0.01,0,0.016,0l3.128,0.002    c0.015,0.086,0.033,0.168,0.065,0.25l1.787,4.656c-2.833,1.373-5.037,3.982-5.767,7.293c-1.26,5.728,2.38,11.426,8.116,12.688    c5.733,1.26,11.426-2.379,12.69-8.115C100.011,81.098,96.37,75.404,90.634,74.143z M95.894,86.203    c-0.915,4.162-5.046,6.803-9.205,5.891c-4.165-0.918-6.804-5.049-5.886-9.207c0.506-2.312,2.01-4.152,3.959-5.176l2.537,6.615    c0.184,0.479,0.587,0.803,1.052,0.902c0.271,0.061,0.559,0.043,0.836-0.061c0.754-0.289,1.131-1.135,0.841-1.889l-2.459-6.416    c0.794-0.082,1.616-0.047,2.438,0.135C94.169,77.914,96.81,82.045,95.894,86.203z"/><path d="M56.208,73.943c-5.871,0-10.651,4.775-10.651,10.648c0,5.873,4.78,10.652,10.651,10.652c5.873,0,10.65-4.779,10.65-10.652    C66.858,78.719,62.081,73.943,56.208,73.943z M56.208,92.322c-4.261,0-7.729-3.469-7.729-7.731c0-4.258,3.468-7.727,7.729-7.727    c4.26,0,7.726,3.469,7.726,7.727C63.934,88.854,60.468,92.322,56.208,92.322z"/></g></g></svg>